HIERARCHY
ROOT Hips
{
	OFFSET	0.00	0.00	0.00
	CHANNELS 6 Xposition Yposition Zposition Zrotation Xrotation Yrotation
	JOINT Spine
	{
		OFFSET	 0.00	0.01	 0.00
		CHANNELS 3 Zrotation Xrotation Yrotation
		JOINT Spine1
		{
			OFFSET	 0.00	 2.45913012437421	 0.00
			CHANNELS 3 Zrotation Xrotation Yrotation
            JOINT Neck
            {
                OFFSET	 0.00	 2.48462964506057	 0.00
                CHANNELS 3 Zrotation Xrotation Yrotation
                JOINT Head
                {
                    OFFSET	 0.00	 0.927524780924562	 0.00
                    CHANNELS 3 Zrotation Xrotation Yrotation
                    End Site 
                    {
                        OFFSET	 0.00	 1.14999962169752	 0.00
                    }
                }
            }
			JOINT LeftShoulder
			{
				OFFSET	 0.00	 2.48462964506057	 0.00
				CHANNELS 3 Zrotation Xrotation Yrotation
				JOINT LeftUpArm
				{
					OFFSET	 0.00	 1.24881979654096	 0.00
					CHANNELS 3 Zrotation Xrotation Yrotation
					JOINT LeftForeArm
					{
						OFFSET	 0.00	2.59758046908119	 0.00
						CHANNELS 3 Zrotation Xrotation Yrotation
						JOINT LeftHand
						{
							OFFSET	 0.00	2.45542024364365	 0.00
							CHANNELS 3 Zrotation Xrotation Yrotation
							JOINT LeftHandThumb 
							{
								OFFSET	 0.00	0.00	 0.00
								CHANNELS 3 Zrotation Xrotation Yrotation
								End Site
								{
									OFFSET	 0.00	0.00	1.00000003353624
								}
							}
							JOINT L_Wrist_End 
							{
								OFFSET	 0.00	0.99999967115358	 0.00
								CHANNELS 3 Zrotation Xrotation Yrotation
								End Site 
								{
									OFFSET	 0.00	 0.00	 0.00
								}
							}
						}
					}
				}
			}
			JOINT RightShoulder
			{
				OFFSET	 0.00	 2.48462964506057	 0.00
				CHANNELS 3 Zrotation Xrotation Yrotation
				JOINT RightUpArm
				{
					OFFSET	 0.00	 1.24881979654096	 0.00
					CHANNELS 3 Zrotation Xrotation Yrotation
					JOINT RightForeArm
					{
						OFFSET	 0.00	2.59758046908119	 0.00
						CHANNELS 3 Zrotation Xrotation Yrotation
						JOINT RightHand
						{
							OFFSET	 0.00	2.45542024364365	 0.00
							CHANNELS 3 Zrotation Xrotation Yrotation
							JOINT RightHandThumb 
							{
								OFFSET	 0.00	0.00	 0.00
								CHANNELS 3 Zrotation Xrotation Yrotation
								End Site
								{
									OFFSET	 0.00	0.00	1.00000003353624
								}
							}
							JOINT R_Wrist_End 
							{
								OFFSET	 0.00	0.99999967115358	 0.00
								CHANNELS 3 Zrotation Xrotation Yrotation
								End Site 
								{
									OFFSET	 0.00	 0.00	 0.00
								}
							}
						}
					}
				}
			}
		}
	}
	JOINT LeftUpLeg
	{
		OFFSET	 1.2719394002717	 0.00	 0.00
		CHANNELS 3 Zrotation Xrotation Yrotation
		JOINT LeftLowLeg
		{
			OFFSET	 0.00	-4.3429100912261	 0.00
			CHANNELS 3 Zrotation Xrotation Yrotation
			JOINT LeftFoot
			{
				OFFSET	 0.00	-4.48767017425826	 0.00
				CHANNELS 3 Zrotation Xrotation Yrotation
				JOINT LeftToeBase
                {
                    OFFSET	 0.00	0.00	 1.51507020887566
                    CHANNELS 3 Zrotation Xrotation Yrotation
                    End Site 
                    {
                        OFFSET	 0.00	0.00	 0.75000010571191
                    }
                }
			}
		}
	}
	JOINT RightUpLeg
	{
		OFFSET	 -1.2719393604653	 0.00	 0.00
		CHANNELS 3 Zrotation Xrotation Yrotation
		JOINT RightLowLeg
		{
			OFFSET	 0.00	-4.3429100912261	 0.00
			CHANNELS 3 Zrotation Xrotation Yrotation
			JOINT RightFoot
			{
				OFFSET	 0.00	-4.48767017425826	 0.00
				CHANNELS 3 Zrotation Xrotation Yrotation
				JOINT RightToeBase
                {
                    OFFSET	 0.00	0.00	 1.51507020887566
                    CHANNELS 3 Zrotation Xrotation Yrotation
                    End Site 
                    {
                        OFFSET	 0.00	0.00	 0.749999965609858
                    }
                }   
			}
		}
	}
}
MOTION 
Frames:	18 
Frame Time: 0.02 
  -2.5875399780273436 -9.33322998046875 10.56739990234375 -139.39 75.8784 118.337 3.58068 -13.6207 17.4989 -16.0768 46.6648 -4.4474 -4.45667 54.551 -124.472 37.7968 42.336 133.071 -106.5582 5.39407 -10.9441 -22.5071 9.17376 16.9594 0.0 33.1032 0.0 16.6156 -5.34339 -1.25019 0.0 0.0 0.0 0.0 0.0 0.0 124.199905 -0.735077 3.8901 43.7593 3.92326 -22.4557 0.0 39.8587 0.0 -2.5858 2.46184 0.631407 0.0 0.0 0.0 0.0 0.0 0.0 8.42895 -4.90952 23.2723 0.0 -3.07894 0.0 1.42679 13.86521 -1.82334 0.0 -8.94194 0.0 5.11093 -10.5484 0.578337 0.0 20.2589 0.0 19.8941 15.787551 -17.2198 0.0 -25.9431 0.0 
  -2.5999600219726564 -9.288079833984375 10.565899658203126 -140.411 75.6495 119.878 3.65976 -13.3296 17.7928 -16.4643 46.6503 -4.48439 -4.71008 54.4851 -123.977 37.8 42.6521 132.694 -106.7109 5.18645 -10.0392 -21.9231 9.6513 16.2564 0.0 32.1965 0.0 16.6718 -5.19213 -1.99087 0.0 0.0 0.0 0.0 0.0 0.0 124.2211 -0.775183 3.71467 43.9936 4.06723 -22.5976 0.0 40.7804 0.0 -3.15435 2.60965 1.08692 0.0 0.0 0.0 0.0 0.0 0.0 8.52085 -5.39962 23.3075 0.0 -3.61799 0.0 1.47732 14.448472 -2.33932 0.0 -8.95149 0.0 5.42692 -10.9649 1.83344 0.0 21.5007 0.0 20.1723 15.442938 -16.9354 0.0 -26.263699 0.0 
  -2.6166500854492187 -9.243800048828126 10.5647998046875 -141.065 75.4207 121.19 3.72978 -13.1922 17.9797 -16.8357 46.8645 -4.46914 -4.79732 54.1914 -123.628 37.4897 42.8827 132.874 -105.8812 5.89387 -10.9431 -22.6204 8.02172 16.05 0.0 31.6625 0.0 16.5344 -5.2595 -1.66696 0.0 0.0 0.0 0.0 0.0 0.0 124.1242 -0.557121 3.63143 44.2865 3.99479 -22.677 0.0 41.8419 0.0 -3.79605 2.6865 1.56028 0.0 0.0 0.0 0.0 0.0 0.0 8.67562 -5.87515 23.2173 0.0 -4.07224 0.0 1.47023 14.992133 -2.91851 0.0 -8.93058 0.0 5.90193 -11.2387 3.20717 0.0 22.7226 0.0 20.9046 15.019037 -16.4979 0.0 -26.115799 0.0 
  -2.636629943847656 -9.196079711914063 10.56469970703125 -141.522 75.1449 122.34 3.81369 -12.993 18.1747 -17.1146 47.0445 -4.35761 -4.2546 54.4143 -124.342 37.9831 43.2151 132.953 -105.928604 5.51704 -10.6031 -22.4228 8.81752 15.8042 0.0 30.4763 0.0 16.1431 -5.75766 -1.63431 0.0 0.0 0.0 0.0 0.0 0.0 124.257706 -0.602437 3.57562 44.2443 4.23626 -22.9844 0.0 42.9211 0.0 -4.79466 2.76615 2.14338 0.0 0.0 0.0 0.0 0.0 0.0 8.9388 -6.41723 22.8625 0.0 -4.40901 0.0 1.29692 15.507532 -3.25317 0.0 -8.87272 0.0 6.52905 -11.5323 4.36871 0.0 24.0981 0.0 22.4755 14.812516 -15.7858 0.0 -25.9096 0.0 
  -2.6589401245117186 -9.148839721679687 10.564200439453124 -141.107 74.9918 122.58 3.87938 -12.721 18.2861 -17.3018 47.3103 -4.20109 -4.43796 54.5026 -124.094 38.4583 43.5515 132.542 -105.83 5.57131 -10.1301 -22.2918 9.07365 15.4253 0.0 29.2998 0.0 16.0953 -5.70231 -1.7483 0.0 0.0 0.0 0.0 0.0 0.0 124.266205 -0.482415 3.50147 44.1868 4.51753 -23.1827 0.0 44.002 0.0 -5.63798 2.84568 2.493 0.0 0.0 0.0 0.0 0.0 0.0 9.23591 -6.74871 22.6488 0.0 -4.61563 0.0 1.22633 15.922509 -3.65473 0.0 -8.84289 0.0 7.22692 -11.7063 5.01176 0.0 26.0785 0.0 24.9044 14.579774 -14.9448 0.0 -25.8712 0.0 
  -2.6821798706054687 -9.099110107421875 10.560799560546876 -140.616 74.9593 122.635 3.99166 -12.3645 18.5816 -17.5632 47.3665 -4.01626 -4.33351 54.9654 -124.294 38.9505 43.7206 132.305 -105.3872 6.46552 -10.1045 -22.5201 7.97437 14.7476 0.0 28.5459 0.0 15.5811 -6.07924 -1.47139 0.0 0.0 0.0 0.0 0.0 0.0 124.346695 -0.302271 3.29079 43.9362 4.76172 -23.4398 0.0 45.0686 0.0 -6.66736 3.15281 2.78709 0.0 0.0 0.0 0.0 0.0 0.0 9.45802 -7.009 22.5087 0.0 -4.75958 0.0 1.19656 16.26714 -4.00676 0.0 -8.77376 0.0 7.87697 -12.2656 4.53063 0.0 29.3391 0.0 26.5846 14.170477 -14.0816 0.0 -26.1231 0.0 
  -2.706130065917969 -9.048880004882813 10.556099853515626 -139.97 75.1089 122.42 4.02429 -12.1305 18.8379 -17.8571 47.5964 -3.63507 -3.95904 55.3308 -124.945 39.4444 43.7368 132.344 -105.3741 6.33381 -9.71868 -22.4632 8.75914 14.8354 0.0 26.9271 0.0 15.3656 -6.22199 -1.21375 0.0 0.0 0.0 0.0 0.0 0.0 124.254395 -0.105429 3.32838 43.8331 5.0037 -23.646 0.0 46.1599 0.0 -7.25041 3.21921 2.34358 0.0 0.0 0.0 0.0 0.0 0.0 9.59221 -7.18013 22.2201 0.0 -4.7296 0.0 1.13257 16.54078 -4.09655 0.0 -8.72724 0.0 8.47244 -13.0269 3.52904 0.0 33.4858 0.0 27.2004 13.75382 -13.6144 0.0 -26.756699 0.0 
  -2.7331698608398436 -9.001160278320313 10.549300537109374 -138.834 75.4217 121.7 3.87083 -11.8284 18.8749 -17.9243 47.7347 -3.34579 -4.8287 55.4493 -123.915 39.9128 43.8165 131.523 -105.5221 6.29155 -9.47306 -22.408 9.11886 14.7205 0.0 25.5181 0.0 14.7933 -6.32307 -1.33848 0.0 0.0 0.0 0.0 0.0 0.0 124.2156 0.0947221 3.26092 43.4025 5.48726 -24.0408 0.0 47.1988 0.0 -7.50449 3.31189 1.64832 0.0 0.0 0.0 0.0 0.0 0.0 9.6914 -7.17679 21.5691 0.0 -4.59575 0.0 0.965162 16.7156 -3.85786 0.0 -8.67185 0.0 9.01616 -13.6127 2.28554 0.0 37.7468 0.0 26.5765 13.43735 -13.5393 0.0 -27.1613 0.0 
  -2.7596099853515623 -8.952069702148437 10.54260009765625 -137.835 75.7686 121.181 3.99291 -11.6304 19.232 -18.3162 47.7944 -3.17218 -4.71888 55.8535 -124.108 39.8737 43.6518 131.687 -105.074 7.24711 -9.97919 -22.6934 7.81673 14.8146 0.0 24.5157 0.0 14.1345 -6.68089 -0.715673 0.0 0.0 0.0 0.0 0.0 0.0 124.2048 0.454807 2.7157 43.1788 6.03934 -23.8496 0.0 48.0772 0.0 -7.92482 3.60884 1.16988 0.0 0.0 0.0 0.0 0.0 0.0 9.7524 -7.27295 20.7967 0.0 -4.34009 0.0 0.809515 16.89889 -3.59196 0.0 -8.65694 0.0 9.50304 -14.0698 1.0021 0.0 41.6508 0.0 24.9934 13.15099 -13.885 0.0 -25.332 0.0 
  -2.787349853515625 -8.90719970703125 10.534300537109376 -136.887 76.2343 120.657 3.97573 -11.5228 19.4572 -18.5772 47.9507 -2.80212 -5.23556 55.7391 -123.402 39.8198 43.6718 131.084 -105.0407 6.97651 -10.1376 -23.0068 8.54113 15.0193 0.0 22.9302 0.0 13.1323 -7.02998 0.116015 0.0 0.0 0.0 0.0 0.0 0.0 124.2704 0.366202 2.95144 42.8247 6.59234 -24.2879 0.0 48.8675 0.0 -8.10951 3.7197 0.946007 0.0 0.0 0.0 0.0 0.0 0.0 9.69695 -7.29136 20.0972 0.0 -4.06928 0.0 0.598915 17.05303 -3.31459 0.0 -8.72826 0.0 9.86837 -14.1888 0.041419 0.0 44.7592 0.0 23.7628 13.1154 -13.9187 0.0 -23.28833 0.0 
  -2.8142498779296874 -8.8672998046875 10.523199462890625 -135.829 76.8456 120.099 4.13221 -11.3771 19.9265 -19.0525 47.8324 -2.73849 -5.07679 56.089 -123.583 39.5057 43.4633 131.431 -104.9364 6.95632 -8.9491 -22.9652 9.23208 14.4914 0.0 21.5076 0.0 12.651 -7.07673 0.851491 0.0 0.0 0.0 0.0 0.0 0.0 124.185394 0.482893 2.54081 42.8383 7.1632 -24.1056 0.0 49.39 0.0 -8.15889 3.88323 1.06838 0.0 0.0 0.0 0.0 0.0 0.0 9.46411 -7.15631 19.6366 0.0 -3.94544 0.0 0.472065 17.282299 -3.46707 0.0 -8.57925 0.0 10.02 -13.8886 -0.712583 0.0 46.7529 0.0 23.3492 13.4817295 -13.2406 0.0 -23.99177 0.0 
  -2.8394000244140627 -8.832269897460938 10.508599853515625 -135.361 77.5761 120.11 4.087 -11.429 20.2408 -19.2628 47.4362 -2.73572 -5.30403 56.7035 -123.389 39.4151 43.1361 131.387 -104.9878 7.72273 -9.27169 -23.0879 8.01266 14.5619 0.0 20.7845 0.0 11.8989 -7.38939 2.43916 0.0 0.0 0.0 0.0 0.0 0.0 124.1158 0.51237 2.3797 42.6352 7.55677 -24.4942 0.0 49.5897 0.0 -8.95557 4.39879 1.15629 0.0 0.0 0.0 0.0 0.0 0.0 9.0169 -7.01105 19.4068 0.0 -3.91974 0.0 0.40892 17.56577 -3.83666 0.0 -8.57752 0.0 9.96062 -13.2602 -1.05518 0.0 47.5047 0.0 23.0253 14.014316 -12.0303 0.0 -23.317421 0.0 
  -2.8629299926757814 -8.80052978515625 10.490699462890625 -135.167 78.4207 120.436 4.03276 -11.5037 20.5368 -19.5235 47.0673 -2.81483 -5.28452 56.9243 -123.499 39.2059 42.806 131.617 -104.894104 7.82337 -9.41506 -23.5379 7.50283 14.5484 0.0 20.3048 0.0 11.4554 -7.71577 4.43003 0.0 0.0 0.0 0.0 0.0 0.0 123.9617 0.490114 2.24273 42.6219 7.90051 -24.3693 0.0 50.0131 0.0 -8.64011 4.11144 1.28136 0.0 0.0 0.0 0.0 0.0 0.0 8.42614 -6.86653 19.015 0.0 -3.86747 0.0 0.318405 17.82003 -4.0903 0.0 -8.53461 0.0 9.83021 -12.2384 -0.726881 0.0 46.8638 0.0 22.9883 14.62934 -10.2046 0.0 -27.6054 0.0 
  -2.8845999145507815 -8.772310180664062 10.470799560546874 -135.079 79.3213 120.872 4.03811 -11.6352 20.8765 -19.7859 46.6656 -2.88441 -5.55745 57.1142 -123.215 39.1779 42.6276 131.508 -105.3362 6.77307 -8.47599 -23.5257 9.18308 14.6871 0.0 19.3306 0.0 11.0368 -7.96862 5.62802 0.0 0.0 0.0 0.0 0.0 0.0 123.8548 0.307266 2.07111 42.5431 8.37045 -24.4695 0.0 50.2127 0.0 -8.8304 4.10511 1.43933 0.0 0.0 0.0 0.0 0.0 0.0 7.76102 -6.68754 18.4864 0.0 -3.82482 0.0 0.170404 18.05464 -4.19177 0.0 -8.51829 0.0 9.67011 -10.8018 0.185974 0.0 44.9301 0.0 23.7597 15.034205 -8.36309 0.0 -29.3388 0.0 
  -2.90489990234375 -8.742769775390625 10.44949951171875 -135.265 80.2471 121.591 4.18467 -11.6294 21.3855 -20.2042 46.022 -3.28787 -5.97084 57.4649 -122.704 39.2305 42.5671 131.354 -105.4427 6.29778 -9.08062 -23.8642 8.87879 15.3553 0.0 19.325 0.0 10.6065 -8.1648 7.11045 0.0 0.0 0.0 0.0 0.0 0.0 123.9904 0.275869 2.21466 42.4116 8.36349 -24.8357 0.0 50.3342 0.0 -9.06628 4.22938 1.62399 0.0 0.0 0.0 0.0 0.0 0.0 7.05831 -6.56206 17.8568 0.0 -3.72307 0.0 -0.0126768 18.26387 -4.1861 0.0 -8.50056 0.0 9.46247 -9.16768 1.53818 0.0 42.0199 0.0 24.6164 15.636037 -6.91276 0.0 -29.643 0.0 
  -2.924179992675781 -8.709580078125 10.426800537109376 -136.04 81.2287 122.872 4.26078 -11.7112 21.8359 -20.5727 45.382 -3.66115 -6.46077 57.6315 -122.081 39.1676 42.4746 131.176 -105.7503 5.64523 -7.38187 -23.5964 9.77994 14.9666 0.0 19.5218 0.0 10.7962 -8.17275 6.89172 0.0 0.0 0.0 0.0 0.0 0.0 123.973206 0.328672 1.35563 42.2189 9.05211 -24.5188 0.0 50.402 0.0 -9.37573 4.1031 1.78084 0.0 0.0 0.0 0.0 0.0 0.0 6.27394 -6.48745 17.3694 0.0 -3.60152 0.0 -0.136862 18.49447 -4.31056 0.0 -8.47103 0.0 9.18444 -7.40441 3.38562 0.0 38.361 0.0 24.9781 16.1564 -6.12045 0.0 -29.0436 0.0 
  -2.945539855957031 -8.673319702148438 10.4052001953125 -136.439 82.163 123.776 4.38443 -11.8185 22.2535 -20.8245 44.7927 -3.9162 -6.71421 57.8387 -121.807 39.1567 42.3434 131.077 -105.7584 5.44868 -7.34991 -23.9085 9.44282 15.391 0.0 20.1849 0.0 10.8242 -7.96788 6.43724 0.0 0.0 0.0 0.0 0.0 0.0 124.0417 0.315629 1.13118 41.9815 9.37808 -24.5264 0.0 50.3737 0.0 -9.70369 4.21597 1.64187 0.0 0.0 0.0 0.0 0.0 0.0 5.59596 -6.38516 16.9171 0.0 -3.45873 0.0 -0.249649 18.72826 -4.45745 0.0 -8.539021 0.0 9.0373 -5.65306 5.33619 0.0 34.7725 0.0 24.2463 16.26787 -6.69765 0.0 -28.674599 0.0 
  -2.966960144042969 -8.631580200195312 10.383800048828125 -136.812 83.0638 124.729 4.39268 -12.0622 22.3826 -20.7263 44.3426 -4.01376 -7.18564 57.9266 -121.335 39.3351 42.2041 130.544 -105.9402 5.50297 -7.49424 -24.1839 8.94272 16.036 0.0 21.1646 0.0 10.992 -7.80509 5.35156 0.0 0.0 0.0 0.0 0.0 0.0 123.915 0.343868 0.884121 41.6942 9.84372 -24.3921 0.0 50.2537 0.0 -9.97152 4.2763 1.83462 0.0 0.0 0.0 0.0 0.0 0.0 4.96563 -6.34511 16.3492 0.0 -3.27766 0.0 -0.383115 18.97573 -4.57323 0.0 -8.54797 0.0 8.87696 -3.96165 6.79479 0.0 32.1741 0.0 24.4813 15.5205765 -8.7608 0.0 -33.6512 0.0 
